<?xml version="1.0"?>
<svg width="300" height="300" xmlns="http://www.w3.org/2000/svg" xmlns:svg="http://www.w3.org/2000/svg">
 <mask height="16" id="path-3-outside-1_401_130" maskUnits="userSpaceOnUse" width="86" x="30.95" y="19.61">
  <rect fill="white" height="16" id="svg_1" width="86" x="30.95" y="19.61"/>
  <path d="m31.95,21.2l6.58,0l0,1.61l-4.56,0l0,2.62l4.25,0l0,1.61l-4.25,0l0,3.96l-2.02,0l0,-9.8z" id="svg_2"/>
  <path d="m41.67,31.14c-0.6,0 -1.05,-0.16 -1.37,-0.48c-0.31,-0.32 -0.46,-0.79 -0.46,-1.4l0,-8.65l1.78,0l0,8.68c0,0.21 0.05,0.36 0.15,0.46c0.11,0.1 0.27,0.14 0.49,0.14c0.21,0 0.48,-0.06 0.8,-0.18l0.26,0.95c-0.42,0.32 -0.97,0.48 -1.65,0.48z" id="svg_3"/>
  <path d="m46.87,31.14c-1.13,0 -2.01,-0.32 -2.64,-0.97c-0.64,-0.64 -0.96,-1.53 -0.96,-2.67c0,-1.14 0.32,-2.03 0.96,-2.67c0.63,-0.65 1.51,-0.97 2.64,-0.97c1.13,0 2.01,0.32 2.65,0.97c0.64,0.64 0.96,1.53 0.96,2.67c0,1.14 -0.32,2.03 -0.96,2.67c-0.64,0.65 -1.52,0.97 -2.65,0.97zm0,-1.33c0.57,0 1.02,-0.21 1.35,-0.62c0.32,-0.41 0.49,-0.97 0.49,-1.69c0,-0.72 -0.17,-1.28 -0.49,-1.69c-0.33,-0.41 -0.78,-0.62 -1.35,-0.62c-0.57,0 -1.02,0.21 -1.34,0.62c-0.32,0.41 -0.48,0.97 -0.48,1.69c0,0.72 0.16,1.28 0.48,1.69c0.32,0.41 0.77,0.62 1.34,0.62z" id="svg_4"/>
  <path d="m60.65,24l-1.79,7l-1.57,0l-1.4,-5.07l-1.4,5.07l-1.58,0l-1.79,-7l1.86,0l0.88,4.35l1.23,-4.35l1.58,0l1.24,4.35l0.88,-4.35l1.86,0z" id="svg_5"/>
  <path d="m61.5,25.86c0,-0.93 -0.01,-1.55 -0.05,-1.86l1.57,0c0.04,0.37 0.07,0.78 0.07,1.22l0.02,0c0.15,-0.42 0.42,-0.75 0.82,-1c0.39,-0.24 0.85,-0.36 1.37,-0.36c0.5,0 0.93,0.11 1.29,0.34c0.35,0.21 0.59,0.51 0.71,0.89c0.19,-0.38 0.47,-0.68 0.85,-0.89c0.39,-0.23 0.82,-0.34 1.29,-0.34c0.78,0 1.38,0.25 1.82,0.76c0.45,0.49 0.67,1.18 0.67,2.05l0,4.33l-1.77,0l0,-4.13c0,-0.49 -0.11,-0.88 -0.33,-1.15c-0.21,-0.28 -0.5,-0.42 -0.88,-0.42c-0.41,0 -0.74,0.15 -0.99,0.44c-0.24,0.28 -0.37,0.66 -0.37,1.14l0,4.12l-1.76,0l0,-4.07c0,-0.52 -0.1,-0.91 -0.31,-1.19c-0.2,-0.29 -0.49,-0.44 -0.87,-0.44c-0.4,0 -0.73,0.16 -0.99,0.46c-0.25,0.3 -0.38,0.69 -0.38,1.17l0,4.07l-1.78,0l0,-5.14z" id="svg_6"/>
  <path d="m75.49,31.14c-0.46,0 -0.87,-0.09 -1.24,-0.28c-0.36,-0.2 -0.64,-0.46 -0.85,-0.8c-0.21,-0.34 -0.31,-0.73 -0.31,-1.15c0,-0.71 0.29,-1.27 0.86,-1.65c0.57,-0.38 1.38,-0.57 2.43,-0.57l1.09,0l0,-0.3c0,-0.37 -0.11,-0.65 -0.33,-0.85c-0.22,-0.21 -0.52,-0.31 -0.93,-0.31c-0.42,0 -0.82,0.08 -1.2,0.23c-0.38,0.15 -0.7,0.35 -0.94,0.61l-0.78,-1.03c0.38,-0.37 0.83,-0.65 1.36,-0.86c0.52,-0.21 1.06,-0.32 1.62,-0.32c0.93,0 1.67,0.22 2.2,0.66c0.53,0.44 0.8,1.04 0.8,1.82l0,3.19c0,0.21 0.01,0.47 0.04,0.76c0.04,0.29 0.08,0.52 0.12,0.71l-1.58,0c-0.05,-0.12 -0.1,-0.24 -0.12,-0.35c-0.03,-0.12 -0.06,-0.28 -0.07,-0.49l-0.03,0c-0.53,0.65 -1.25,0.98 -2.14,0.98zm0.43,-1.34c0.45,0 0.82,-0.12 1.11,-0.34c0.29,-0.23 0.44,-0.53 0.44,-0.88l0,-0.7l-1.14,0c-0.48,0 -0.85,0.09 -1.11,0.26c-0.25,0.18 -0.38,0.44 -0.38,0.77c0,0.28 0.1,0.5 0.28,0.66c0.2,0.15 0.46,0.23 0.8,0.23z" id="svg_7"/>
  <path d="m80.82,25.86c0,-0.75 -0.01,-1.37 -0.05,-1.86l1.68,0c0.03,0.28 0.04,0.59 0.04,0.92l0.03,0c0.23,-0.33 0.53,-0.59 0.91,-0.78c0.37,-0.19 0.79,-0.28 1.24,-0.28c0.89,0 1.59,0.33 2.1,0.98c0.52,0.65 0.77,1.54 0.77,2.67c0,1.13 -0.26,2.02 -0.78,2.66c-0.51,0.65 -1.23,0.97 -2.14,0.97c-0.45,0 -0.85,-0.07 -1.19,-0.22c-0.35,-0.15 -0.6,-0.36 -0.77,-0.63l-0.04,0l0,4.1l-1.8,0l0,-8.53zm3.41,3.95c0.49,0 0.87,-0.2 1.13,-0.6c0.26,-0.41 0.39,-1 0.39,-1.75c0,-1.49 -0.5,-2.23 -1.5,-2.23c-0.48,0 -0.88,0.15 -1.19,0.44c-0.29,0.28 -0.44,0.65 -0.44,1.12l0,1.44c0,0.45 0.15,0.82 0.46,1.13c0.31,0.3 0.69,0.45 1.15,0.45z" id="svg_8"/>
  <path d="m88.95,21.2l3.18,0c1.13,0 1.99,0.21 2.57,0.63c0.59,0.41 0.89,1.02 0.89,1.82c0,0.47 -0.11,0.87 -0.33,1.2c-0.21,0.34 -0.55,0.62 -1,0.86l0,0.04c0.59,0.22 1.02,0.52 1.28,0.9c0.27,0.37 0.41,0.86 0.41,1.47c0,0.93 -0.28,1.64 -0.83,2.14c-0.54,0.49 -1.33,0.74 -2.38,0.74l-3.79,0l0,-9.8zm3.36,3.91c0.39,0 0.7,-0.11 0.91,-0.33c0.22,-0.22 0.34,-0.53 0.34,-0.92c0,-0.38 -0.13,-0.66 -0.38,-0.84c-0.24,-0.18 -0.62,-0.27 -1.14,-0.27l-1.07,0l0,2.36l1.34,0zm0.28,4.34c0.44,0 0.77,-0.13 1.01,-0.38c0.24,-0.25 0.36,-0.61 0.36,-1.08c0,-0.49 -0.14,-0.85 -0.43,-1.08c-0.29,-0.22 -0.76,-0.33 -1.4,-0.33l-1.16,0l0,2.87l1.62,0z" id="svg_9"/>
  <path d="m99.12,31.14c-0.6,0 -1.05,-0.16 -1.37,-0.48c-0.31,-0.32 -0.46,-0.79 -0.46,-1.4l0,-8.65l1.77,0l0,8.68c0,0.21 0.06,0.36 0.16,0.46c0.11,0.1 0.27,0.14 0.49,0.14c0.21,0 0.48,-0.06 0.8,-0.18l0.26,0.95c-0.42,0.32 -0.97,0.48 -1.65,0.48z" id="svg_10"/>
  <path d="m103.82,31.14c-0.8,0 -1.41,-0.27 -1.83,-0.81c-0.41,-0.54 -0.62,-1.34 -0.62,-2.38l0,-3.95l1.79,0l0,3.96c0,0.6 0.1,1.04 0.3,1.32c0.19,0.28 0.5,0.42 0.91,0.42c0.49,0 0.9,-0.19 1.21,-0.56c0.32,-0.38 0.48,-0.86 0.48,-1.42l0,-3.72l1.79,0l0,5.22c0,0.48 0.04,1.07 0.12,1.78l-1.7,0c-0.07,-0.42 -0.11,-0.83 -0.13,-1.23l-0.02,0c-0.17,0.42 -0.46,0.75 -0.89,1.01c-0.4,0.24 -0.88,0.36 -1.41,0.36z" id="svg_11"/>
  <path d="m115.7,28.16l-4.87,0c0.15,0.99 0.72,1.48 1.72,1.48c0.41,0 0.77,-0.07 1.06,-0.21c0.31,-0.14 0.61,-0.37 0.9,-0.7l0.97,0.93c-0.27,0.44 -0.68,0.8 -1.23,1.07c-0.55,0.27 -1.14,0.41 -1.8,0.41c-1.09,0 -1.94,-0.32 -2.54,-0.95c-0.61,-0.65 -0.91,-1.53 -0.91,-2.66c0,-1.14 0.3,-2.04 0.91,-2.69c0.61,-0.65 1.46,-0.98 2.53,-0.98c1.03,0 1.82,0.32 2.39,0.97c0.58,0.64 0.87,1.54 0.87,2.68l0,0.65zm-1.75,-1.3c0,-0.48 -0.14,-0.85 -0.42,-1.12c-0.27,-0.28 -0.65,-0.42 -1.13,-0.42c-0.44,0 -0.8,0.14 -1.07,0.43c-0.27,0.28 -0.44,0.68 -0.52,1.19l3.14,0l0,-0.08z" id="svg_12"/>
 </mask>
 <mask height="10" id="path-4-outside-2_401_130" maskUnits="userSpaceOnUse" width="41" x="30.47" y="10.06">
  <rect fill="white" height="10" id="svg_13" width="41" x="30.47" y="10.06"/>
  <path d="m31.5,14.01c0,-0.34 -0.01,-0.68 -0.03,-1.01l0.63,0c0.01,0.2 0.02,0.41 0.02,0.63l0.02,0c0.11,-0.21 0.28,-0.38 0.52,-0.51c0.23,-0.13 0.48,-0.2 0.76,-0.2c0.51,0 0.92,0.18 1.21,0.55c0.3,0.37 0.44,0.88 0.44,1.53c0,0.42 -0.07,0.79 -0.21,1.1c-0.13,0.31 -0.33,0.55 -0.59,0.72c-0.25,0.17 -0.54,0.26 -0.88,0.26c-0.28,0 -0.52,-0.05 -0.73,-0.16c-0.2,-0.11 -0.36,-0.26 -0.45,-0.45l-0.03,0l0,2.47l-0.68,0l0,-4.93zm1.79,2.55c0.34,0 0.61,-0.14 0.81,-0.42c0.19,-0.29 0.29,-0.68 0.29,-1.16c0,-0.49 -0.09,-0.86 -0.29,-1.12c-0.19,-0.27 -0.46,-0.4 -0.8,-0.4c-0.33,0 -0.6,0.11 -0.8,0.32c-0.21,0.22 -0.32,0.49 -0.32,0.82l0,0.73c0,0.37 0.11,0.66 0.31,0.89c0.2,0.23 0.47,0.34 0.8,0.34z" id="svg_14"/>
  <path d="m37.58,17.08c-0.39,0 -0.74,-0.08 -1.03,-0.25c-0.29,-0.17 -0.51,-0.41 -0.67,-0.73c-0.16,-0.31 -0.23,-0.68 -0.23,-1.1c0,-0.42 0.07,-0.79 0.23,-1.1c0.16,-0.32 0.38,-0.56 0.67,-0.72c0.29,-0.17 0.64,-0.26 1.03,-0.26c0.6,0 1.07,0.19 1.42,0.56c0.35,0.37 0.53,0.88 0.53,1.52c0,0.64 -0.18,1.15 -0.53,1.52c-0.35,0.37 -0.82,0.56 -1.42,0.56zm0,-0.52c0.4,0 0.71,-0.14 0.93,-0.42c0.23,-0.27 0.34,-0.65 0.34,-1.14c0,-0.49 -0.11,-0.87 -0.34,-1.14c-0.22,-0.28 -0.53,-0.42 -0.93,-0.42c-0.39,0 -0.69,0.14 -0.92,0.42c-0.22,0.27 -0.33,0.65 -0.33,1.14c0,0.49 0.11,0.87 0.33,1.14c0.23,0.28 0.53,0.42 0.92,0.42z" id="svg_15"/>
  <path d="m45.07,13l-1,4l-0.62,0l-0.97,-3.27l-0.96,3.27l-0.62,0l-1,-4l0.71,0l0.65,3.07l0.91,-3.07l0.63,0l0.91,3.07l0.65,-3.07l0.71,0z" id="svg_16"/>
  <path d="m49.01,15.26l-2.88,0c0.04,0.41 0.16,0.72 0.36,0.93c0.21,0.21 0.49,0.31 0.84,0.31c0.48,0 0.86,-0.19 1.15,-0.56l0.38,0.36c-0.15,0.25 -0.37,0.44 -0.65,0.58c-0.27,0.13 -0.57,0.2 -0.9,0.2c-0.59,0 -1.05,-0.18 -1.38,-0.54c-0.32,-0.37 -0.49,-0.88 -0.49,-1.53c0,-0.65 0.17,-1.16 0.49,-1.53c0.33,-0.37 0.79,-0.56 1.36,-0.56c0.54,0 0.96,0.18 1.27,0.55c0.3,0.36 0.45,0.87 0.45,1.53l0,0.26zm-0.62,-0.56c0,-0.38 -0.1,-0.68 -0.31,-0.9c-0.19,-0.22 -0.47,-0.33 -0.82,-0.33c-0.33,0 -0.59,0.11 -0.79,0.34c-0.19,0.22 -0.31,0.54 -0.34,0.95l2.26,0l0,-0.06z" id="svg_17"/>
  <path d="m49.83,13.98c0,-0.46 0,-0.78 -0.02,-0.98l0.63,0c0.02,0.21 0.03,0.45 0.03,0.7l0,0.08l0.03,0c0.1,-0.27 0.26,-0.49 0.48,-0.64c0.23,-0.15 0.49,-0.22 0.8,-0.22c0.08,0 0.16,0.01 0.23,0.02l0,0.56c-0.07,-0.01 -0.16,-0.02 -0.28,-0.02c-0.22,0 -0.43,0.07 -0.62,0.21c-0.18,0.13 -0.33,0.32 -0.44,0.55c-0.1,0.23 -0.16,0.49 -0.16,0.77l0,1.99l-0.68,0l0,-3.02z" id="svg_18"/>
  <path d="m55.95,15.26l-2.88,0c0.04,0.41 0.16,0.72 0.36,0.93c0.2,0.21 0.48,0.31 0.84,0.31c0.48,0 0.86,-0.19 1.14,-0.56l0.39,0.36c-0.16,0.25 -0.37,0.44 -0.65,0.58c-0.27,0.13 -0.57,0.2 -0.9,0.2c-0.6,0 -1.05,-0.18 -1.38,-0.54c-0.33,-0.37 -0.49,-0.88 -0.49,-1.53c0,-0.65 0.16,-1.16 0.49,-1.53c0.33,-0.37 0.78,-0.56 1.36,-0.56c0.54,0 0.96,0.18 1.26,0.55c0.31,0.36 0.46,0.87 0.46,1.53l0,0.26zm-0.62,-0.56c0,-0.38 -0.11,-0.68 -0.31,-0.9c-0.2,-0.22 -0.47,-0.33 -0.82,-0.33c-0.33,0 -0.6,0.11 -0.79,0.34c-0.2,0.22 -0.31,0.54 -0.34,0.95l2.26,0l0,-0.06z" id="svg_19"/>
  <path d="m58.19,17.08c-0.52,0 -0.93,-0.19 -1.24,-0.58c-0.29,-0.38 -0.44,-0.91 -0.44,-1.57c0,-0.41 0.07,-0.76 0.2,-1.06c0.14,-0.3 0.34,-0.54 0.6,-0.7c0.25,-0.17 0.55,-0.25 0.89,-0.25c0.49,0 0.89,0.21 1.19,0.62l0.01,0l0,-2.48l0.67,0l0,4.93c0,0.5 0.01,0.83 0.03,1.01l-0.63,0c-0.01,-0.13 -0.01,-0.34 -0.01,-0.63l-0.02,0c-0.12,0.21 -0.3,0.38 -0.53,0.52c-0.22,0.13 -0.47,0.19 -0.72,0.19zm0.09,-0.54c0.34,0 0.61,-0.11 0.81,-0.31c0.2,-0.21 0.3,-0.48 0.3,-0.83l0,-0.73c0,-0.37 -0.1,-0.67 -0.3,-0.89c-0.2,-0.23 -0.47,-0.34 -0.81,-0.34c-0.34,0 -0.61,0.13 -0.81,0.4c-0.19,0.26 -0.28,0.63 -0.28,1.1c0,0.5 0.09,0.89 0.28,1.17c0.2,0.28 0.47,0.43 0.81,0.43z" id="svg_20"/>
  <path d="m64.9,17.08c-0.25,0 -0.49,-0.06 -0.73,-0.19c-0.23,-0.14 -0.41,-0.31 -0.53,-0.52l-0.01,0c0,0.17 0,0.38 -0.02,0.63l-0.62,0c0.01,-0.18 0.02,-0.51 0.02,-1.01l0,-4.93l0.68,0l0,2.48l0.02,0c0.26,-0.41 0.67,-0.62 1.21,-0.62c0.51,0 0.91,0.18 1.21,0.54c0.3,0.36 0.45,0.85 0.45,1.47c0,0.66 -0.15,1.19 -0.46,1.57c-0.29,0.39 -0.7,0.58 -1.22,0.58zm-0.1,-0.54c0.35,0 0.61,-0.15 0.8,-0.43c0.2,-0.28 0.3,-0.67 0.3,-1.17c0,-0.47 -0.1,-0.84 -0.3,-1.1c-0.19,-0.27 -0.45,-0.4 -0.8,-0.4c-0.33,0 -0.6,0.11 -0.8,0.34c-0.21,0.23 -0.31,0.52 -0.31,0.89l0,0.73c0,0.35 0.1,0.62 0.3,0.83c0.2,0.2 0.47,0.31 0.81,0.31z" id="svg_21"/>
  <path d="m70.3,13l-1.44,4.07c-0.37,1.03 -0.94,1.55 -1.71,1.55c-0.14,0 -0.29,-0.02 -0.45,-0.06l0,-0.52c0.1,0.03 0.22,0.05 0.36,0.05c0.27,0 0.5,-0.1 0.69,-0.3c0.19,-0.2 0.38,-0.53 0.55,-1l-1.48,-3.79l0.72,0l1.08,3.06l0.95,-3.06l0.73,0z" id="svg_22"/>
 </mask>
 <g class="layer">
  <title>Layer 1</title>
  <g id="svg_65">
   <path d="m149.87,298.05c81.89,0 148.3,-66.41 148.3,-148.3c0,-81.89 -66.41,-148.3 -148.3,-148.3c-81.89,0 -148.3,66.41 -148.3,148.3c0,81.89 66.41,148.3 148.3,148.3z" fill="#1A70A7" id="svg_23" stroke="#1A70A7" stroke-width="0.07"/>
   <path clip-rule="evenodd" d="m197.56,149.01l31.5,0l-67.9,90l0,-174.88l36.41,0l0,84.88l0,0zm-96.41,2.88l-31.6,0l67.9,-90l0,174.99l-36.3,0l0,-84.99z" fill="#1b71a4" fill-rule="evenodd" id="svg_24" stroke="white" stroke-linejoin="round" stroke-opacity="0.94" stroke-width="7"/>
  </g>
 </g>
</svg>